<?xml version="1.0" encoding="UTF-8" standalone="no"?><svg xmlns="http://www.w3.org/2000/svg" xmlns:xlink="http://www.w3.org/1999/xlink" contentStyleType="text/css" height="2662px" preserveAspectRatio="none" style="width:2232px;height:2662px;background:#FFFFFF;" version="1.1" viewBox="0 0 2232 2662" width="2232px" zoomAndPan="magnify"><defs/><g><rect fill="#FFFFFF" height="35.6094" id="_title" style="stroke:#FFFFFF;stroke-width:0.0;" width="912" x="658.75" y="10"/><text fill="#000000" font-family="Verdana" font-size="22" font-weight="bold" lengthAdjust="spacing" textLength="902" x="663.75" y="35.4209">Диаграмма активности - Автоматизированный процесс распознавания</text><rect fill="#FFFFFF" height="20.9531" style="stroke:#FFFFFF;stroke-width:1.0;" width="2209.5" x="10" y="54.3545"/><ellipse cx="292" cy="90.3076" fill="#FFFFFF" rx="10" ry="10" style="stroke:#000000;stroke-width:1.0;"/><rect fill="#FFFFFF" height="33.9688" rx="12.5" ry="12.5" style="stroke:#000000;stroke-width:1.0;" width="128" x="228" y="120.3076"/><text fill="#000000" font-family="Verdana" font-size="12" lengthAdjust="spacing" textLength="108" x="238" y="141.4463">Подходит к КПП</text><rect fill="#FFFFFF" height="33.9688" rx="12.5" ry="12.5" style="stroke:#000000;stroke-width:1.0;" width="140" x="222" y="174.2764"/><text fill="#000000" font-family="Verdana" font-size="12" lengthAdjust="spacing" textLength="120" x="232" y="195.415">Смотрит в камеру</text><rect fill="#FFFFFF" height="47.9375" rx="12.5" ry="12.5" style="stroke:#000000;stroke-width:1.0;" width="169" x="207.5" y="492.5225"/><text fill="#000000" font-family="Verdana" font-size="12" lengthAdjust="spacing" textLength="145" x="217.5" y="513.6611">Получает сообщение:</text><text fill="#000000" font-family="Verdana" font-size="12" lengthAdjust="spacing" textLength="149" x="217.5" y="527.6299">"Лицо не обнаружено"</text><ellipse cx="292" cy="581.7412" fill="#FFFFFF" rx="11" ry="11" style="stroke:#000000;stroke-width:1.0;"/><ellipse cx="292" cy="581.7412" fill="#000000" rx="6" ry="6" style="stroke:#7F7F7F;stroke-width:1.0;"/><rect fill="#FFFFFF" height="47.9375" rx="12.5" ry="12.5" style="stroke:#000000;stroke-width:1.0;" width="174" x="205" y="634.7412"/><text fill="#000000" font-family="Verdana" font-size="12" lengthAdjust="spacing" textLength="154" x="215" y="655.8799">Отправляет данные на</text><text fill="#000000" font-family="Verdana" font-size="12" lengthAdjust="spacing" textLength="139" x="215" y="669.8486">центральный сервер</text><rect fill="#FFFFFF" height="47.9375" rx="12.5" ry="12.5" style="stroke:#000000;stroke-width:1.0;" width="174" x="205" y="1034.8936"/><text fill="#000000" font-family="Verdana" font-size="12" lengthAdjust="spacing" textLength="145" x="215" y="1056.0322">Получает сообщение:</text><text fill="#000000" font-family="Verdana" font-size="12" lengthAdjust="spacing" textLength="154" x="215" y="1070.001">"Сотрудник не найден"</text><rect fill="#FFFFFF" height="47.9375" rx="12.5" ry="12.5" style="stroke:#000000;stroke-width:1.0;" width="165" x="209.5" y="1283.1709"/><text fill="#000000" font-family="Verdana" font-size="12" lengthAdjust="spacing" textLength="145" x="219.5" y="1304.3096">Получает сообщение:</text><text fill="#000000" font-family="Verdana" font-size="12" lengthAdjust="spacing" textLength="123" x="219.5" y="1318.2783">"Низкая точность"</text><rect fill="#FFFFFF" height="47.9375" rx="12.5" ry="12.5" style="stroke:#000000;stroke-width:1.0;" width="174" x="205" y="1653.3545"/><text fill="#000000" font-family="Verdana" font-size="12" lengthAdjust="spacing" textLength="145" x="215" y="1674.4932">Получает сообщение:</text><text fill="#000000" font-family="Verdana" font-size="12" lengthAdjust="spacing" textLength="154" x="215" y="1688.4619">"Доступ заблокирован"</text><rect fill="#FFFFFF" height="47.9375" rx="12.5" ry="12.5" style="stroke:#000000;stroke-width:1.0;" width="165" x="209.5" y="1969.5693"/><text fill="#000000" font-family="Verdana" font-size="12" lengthAdjust="spacing" textLength="145" x="219.5" y="1990.708">Получает сообщение:</text><text fill="#000000" font-family="Verdana" font-size="12" lengthAdjust="spacing" textLength="130" x="219.5" y="2004.6768">"Нет прав доступа"</text><rect fill="#FFFFFF" height="33.9688" rx="12.5" ry="12.5" style="stroke:#000000;stroke-width:1.0;" width="194" x="195" y="2521.1943"/><text fill="#000000" font-family="Verdana" font-size="12" lengthAdjust="spacing" textLength="174" x="205" y="2542.333">Проходит через турникет</text><path d="M25,2575.1631 L25,2645.6943 L271,2645.6943 L271,2585.1631 L261,2575.1631 L25,2575.1631 " fill="#FFFFFF" style="stroke:#000000;stroke-width:1.0;"/><path d="M261,2575.1631 L261,2585.1631 L271,2585.1631 L261,2575.1631 " fill="#FFFFFF" style="stroke:#000000;stroke-width:1.0;"/><text fill="#000000" font-family="Verdana" font-size="13" lengthAdjust="spacing" textLength="87" x="31" y="2592.23">Мониторинг:</text><text fill="#000000" font-family="Verdana" font-size="13" lengthAdjust="spacing" textLength="217" x="31" y="2607.3628">- Prometheus собирает метрики</text><text fill="#000000" font-family="Verdana" font-size="13" lengthAdjust="spacing" textLength="221" x="31" y="2622.4956">- Grafana визуализирует данные</text><text fill="#000000" font-family="Verdana" font-size="13" lengthAdjust="spacing" textLength="225" x="31" y="2637.6284">- Контроль производительности</text><path d="M313,2575.1631 L313,2645.6943 L545,2645.6943 L545,2585.1631 L535,2575.1631 L313,2575.1631 " fill="#FFFFFF" style="stroke:#000000;stroke-width:1.0;"/><path d="M535,2575.1631 L535,2585.1631 L545,2585.1631 L535,2575.1631 " fill="#FFFFFF" style="stroke:#000000;stroke-width:1.0;"/><text fill="#000000" font-family="Verdana" font-size="13" lengthAdjust="spacing" textLength="148" x="319" y="2592.23">Целевые показатели:</text><text fill="#000000" font-family="Verdana" font-size="13" lengthAdjust="spacing" textLength="182" x="319" y="2607.3628">- Время обработки &lt; 1 сек</text><text fill="#000000" font-family="Verdana" font-size="13" lengthAdjust="spacing" textLength="119" x="319" y="2622.4956">- Точность &gt; 98%</text><text fill="#000000" font-family="Verdana" font-size="13" lengthAdjust="spacing" textLength="211" x="319" y="2637.6284">- Поддержка 300 запросов/сек</text><ellipse cx="292" cy="2610.4287" fill="#FFFFFF" rx="11" ry="11" style="stroke:#000000;stroke-width:1.0;"/><ellipse cx="292" cy="2610.4287" fill="#000000" rx="6" ry="6" style="stroke:#7F7F7F;stroke-width:1.0;"/><line style="stroke:#000000;stroke-width:1.0;" x1="10" x2="10" y1="54.3545" y2="2655.6943"/><rect fill="#FFFFFF" height="33.9688" rx="12.5" ry="12.5" style="stroke:#000000;stroke-width:1.0;" width="191" x="566" y="228.2451"/><text fill="#000000" font-family="Verdana" font-size="12" lengthAdjust="spacing" textLength="171" x="576" y="249.3838">Захватывает видеопоток</text><line style="stroke:#000000;stroke-width:1.0;" x1="560" x2="560" y1="54.3545" y2="2655.6943"/><rect fill="#FFFFFF" height="33.9688" rx="12.5" ry="12.5" style="stroke:#000000;stroke-width:1.0;" width="154" x="802.5" y="282.2139"/><text fill="#000000" font-family="Verdana" font-size="12" lengthAdjust="spacing" textLength="134" x="812.5" y="303.3525">Обнаруживает лицо</text><rect fill="#FFFFFF" height="33.9688" rx="12.5" ry="12.5" style="stroke:#000000;stroke-width:1.0;" width="211" x="774" y="336.1826"/><text fill="#000000" font-family="Verdana" font-size="12" lengthAdjust="spacing" textLength="191" x="784" y="357.3213">Выделяет ключевые области</text><rect fill="#FFFFFF" height="33.9688" rx="12.5" ry="12.5" style="stroke:#000000;stroke-width:1.0;" width="147" x="806" y="390.1514"/><text fill="#000000" font-family="Verdana" font-size="12" lengthAdjust="spacing" textLength="127" x="816" y="411.29">Сжимает признаки</text><polygon fill="#FFFFFF" points="823.5,444.1201,935.5,444.1201,947.5,456.1201,935.5,468.1201,823.5,468.1201,811.5,456.1201,823.5,444.1201" style="stroke:#000000;stroke-width:1.0;"/><text fill="#000000" font-family="Verdana" font-size="11" lengthAdjust="spacing" textLength="21" x="883.5" y="478.3306">нет</text><text fill="#000000" font-family="Verdana" font-size="11" lengthAdjust="spacing" textLength="112" x="823.5" y="459.9282">Лицо обнаружено?</text><text fill="#000000" font-family="Verdana" font-size="11" lengthAdjust="spacing" textLength="15" x="947.5" y="453.5259">да</text><rect fill="#FFFFFF" height="33.9688" rx="12.5" ry="12.5" style="stroke:#000000;stroke-width:1.0;" width="168" x="795.5" y="2223.4131"/><text fill="#000000" font-family="Verdana" font-size="12" lengthAdjust="spacing" textLength="148" x="805.5" y="2244.5518">Получает разрешение</text><rect fill="#FFFFFF" height="33.9688" rx="12.5" ry="12.5" style="stroke:#000000;stroke-width:1.0;" width="197" x="781" y="2277.3818"/><text fill="#000000" font-family="Verdana" font-size="12" lengthAdjust="spacing" textLength="177" x="791" y="2298.5205">Отображает приветствие</text><rect fill="#FFFFFF" height="33.9688" rx="12.5" ry="12.5" style="stroke:#000000;stroke-width:1.0;" width="161" x="799" y="2331.3506"/><text fill="#000000" font-family="Verdana" font-size="12" lengthAdjust="spacing" textLength="141" x="809" y="2352.4893">Открывает турникет</text><line style="stroke:#000000;stroke-width:1.0;" x1="761" x2="761" y1="54.3545" y2="2655.6943"/><rect fill="#FFFFFF" height="33.9688" rx="12.5" ry="12.5" style="stroke:#000000;stroke-width:1.0;" width="132" x="1028" y="702.6787"/><text fill="#000000" font-family="Verdana" font-size="12" lengthAdjust="spacing" textLength="112" x="1038" y="723.8174">Получает запрос</text><rect fill="#FFFFFF" height="33.9688" rx="12.5" ry="12.5" style="stroke:#000000;stroke-width:1.0;" width="176" x="1006" y="756.6475"/><text fill="#000000" font-family="Verdana" font-size="12" lengthAdjust="spacing" textLength="156" x="1016" y="777.7861">Распределяет нагрузку</text><line style="stroke:#000000;stroke-width:1.0;" x1="1000" x2="1000" y1="54.3545" y2="2655.6943"/><rect fill="#FFFFFF" height="33.9688" rx="12.5" ry="12.5" style="stroke:#000000;stroke-width:1.0;" width="201" x="1199.75" y="810.6162"/><text fill="#000000" font-family="Verdana" font-size="12" lengthAdjust="spacing" textLength="181" x="1209.75" y="831.7549">Нормализует изображение</text><rect fill="#FFFFFF" height="33.9688" rx="12.5" ry="12.5" style="stroke:#000000;stroke-width:1.0;" width="175" x="1212.75" y="864.585"/><text fill="#000000" font-family="Verdana" font-size="12" lengthAdjust="spacing" textLength="155" x="1222.75" y="885.7236">Генерирует эмбеддинг</text><rect fill="#FFFFFF" height="47.9375" rx="12.5" ry="12.5" style="stroke:#000000;stroke-width:1.0;" width="169" x="1215.75" y="918.5537"/><text fill="#000000" font-family="Verdana" font-size="12" lengthAdjust="spacing" textLength="131" x="1225.75" y="939.6924">Ищет совпадения в</text><text fill="#000000" font-family="Verdana" font-size="12" lengthAdjust="spacing" textLength="149" x="1225.75" y="953.6611">векторном хранилище</text><polygon fill="#FFFFFF" points="1234.75,986.4912,1365.75,986.4912,1377.75,998.4912,1365.75,1010.4912,1234.75,1010.4912,1222.75,998.4912,1234.75,986.4912" style="stroke:#000000;stroke-width:1.0;"/><text fill="#000000" font-family="Verdana" font-size="11" lengthAdjust="spacing" textLength="21" x="1304.25" y="1020.7017">нет</text><text fill="#000000" font-family="Verdana" font-size="11" lengthAdjust="spacing" textLength="131" x="1234.75" y="1002.2993">Найдено совпадение?</text><text fill="#000000" font-family="Verdana" font-size="11" lengthAdjust="spacing" textLength="15" x="1377.75" y="995.897">да</text><line style="stroke:#000000;stroke-width:1.0;" x1="1186" x2="1186" y1="54.3545" y2="2655.6943"/><rect fill="#FFFFFF" height="47.9375" rx="12.5" ry="12.5" style="stroke:#000000;stroke-width:1.0;" width="161" x="1463.5" y="1102.8311"/><text fill="#000000" font-family="Verdana" font-size="12" lengthAdjust="spacing" textLength="141" x="1473.5" y="1123.9697">Записывает событие</text><text fill="#000000" font-family="Verdana" font-size="12" lengthAdjust="spacing" textLength="133" x="1473.5" y="1137.9385">"Неизвестное лицо"</text><ellipse cx="1544" cy="1181.7686" fill="#FFFFFF" rx="11" ry="11" style="stroke:#000000;stroke-width:1.0;"/><ellipse cx="1544" cy="1181.7686" fill="#000000" rx="6" ry="6" style="stroke:#7F7F7F;stroke-width:1.0;"/><rect fill="#FFFFFF" height="47.9375" rx="12.5" ry="12.5" style="stroke:#000000;stroke-width:1.0;" width="183" x="1452.5" y="1351.1084"/><text fill="#000000" font-family="Verdana" font-size="12" lengthAdjust="spacing" textLength="141" x="1462.5" y="1372.2471">Записывает событие</text><text fill="#000000" font-family="Verdana" font-size="12" lengthAdjust="spacing" textLength="163" x="1462.5" y="1386.2158">"Низкая достоверность"</text><ellipse cx="1544" cy="1430.0459" fill="#FFFFFF" rx="11" ry="11" style="stroke:#000000;stroke-width:1.0;"/><ellipse cx="1544" cy="1430.0459" fill="#000000" rx="6" ry="6" style="stroke:#7F7F7F;stroke-width:1.0;"/><polygon fill="#FFFFFF" points="1468.5,1234.7686,1619.5,1234.7686,1631.5,1246.7686,1619.5,1258.7686,1468.5,1258.7686,1456.5,1246.7686,1468.5,1234.7686" style="stroke:#000000;stroke-width:1.0;"/><text fill="#000000" font-family="Verdana" font-size="11" lengthAdjust="spacing" textLength="21" x="1548" y="1268.979">нет</text><text fill="#000000" font-family="Verdana" font-size="11" lengthAdjust="spacing" textLength="151" x="1468.5" y="1250.5767">Уровень схожести &gt;98%?</text><text fill="#000000" font-family="Verdana" font-size="11" lengthAdjust="spacing" textLength="15" x="1631.5" y="1244.1743">да</text><rect fill="#FFFFFF" height="47.9375" rx="12.5" ry="12.5" style="stroke:#000000;stroke-width:1.0;" width="185" x="1451.5" y="1721.292"/><text fill="#000000" font-family="Verdana" font-size="12" lengthAdjust="spacing" textLength="141" x="1461.5" y="1742.4307">Записывает событие</text><text fill="#000000" font-family="Verdana" font-size="12" lengthAdjust="spacing" textLength="165" x="1461.5" y="1756.3994">"Неактивный сотрудник"</text><ellipse cx="1544" cy="1800.2295" fill="#FFFFFF" rx="11" ry="11" style="stroke:#000000;stroke-width:1.0;"/><ellipse cx="1544" cy="1800.2295" fill="#000000" rx="6" ry="6" style="stroke:#7F7F7F;stroke-width:1.0;"/><rect fill="#FFFFFF" height="47.9375" rx="12.5" ry="12.5" style="stroke:#000000;stroke-width:1.0;" width="194" x="1447" y="1853.2295"/><text fill="#000000" font-family="Verdana" font-size="12" lengthAdjust="spacing" textLength="174" x="1457" y="1874.3682">Проверяет права доступа</text><text fill="#000000" font-family="Verdana" font-size="12" lengthAdjust="spacing" textLength="98" x="1457" y="1888.3369">к данному КПП</text><rect fill="#FFFFFF" height="47.9375" rx="12.5" ry="12.5" style="stroke:#000000;stroke-width:1.0;" width="161" x="1463.5" y="2037.5068"/><text fill="#000000" font-family="Verdana" font-size="12" lengthAdjust="spacing" textLength="141" x="1473.5" y="2058.6455">Записывает событие</text><text fill="#000000" font-family="Verdana" font-size="12" lengthAdjust="spacing" textLength="71" x="1473.5" y="2072.6143">"Нет прав"</text><ellipse cx="1544" cy="2116.4443" fill="#FFFFFF" rx="11" ry="11" style="stroke:#000000;stroke-width:1.0;"/><ellipse cx="1544" cy="2116.4443" fill="#000000" rx="6" ry="6" style="stroke:#7F7F7F;stroke-width:1.0;"/><polygon fill="#FFFFFF" points="1482,1921.167,1606,1921.167,1618,1933.167,1606,1945.167,1482,1945.167,1470,1933.167,1482,1921.167" style="stroke:#000000;stroke-width:1.0;"/><text fill="#000000" font-family="Verdana" font-size="11" lengthAdjust="spacing" textLength="21" x="1548" y="1955.3774">нет</text><text fill="#000000" font-family="Verdana" font-size="11" lengthAdjust="spacing" textLength="124" x="1482" y="1936.9751">Есть права доступа?</text><text fill="#000000" font-family="Verdana" font-size="11" lengthAdjust="spacing" textLength="15" x="1618" y="1930.5728">да</text><rect fill="#FFFFFF" height="33.9688" rx="12.5" ry="12.5" style="stroke:#000000;stroke-width:1.0;" width="229" x="1429.5" y="2169.4443"/><text fill="#000000" font-family="Verdana" font-size="12" lengthAdjust="spacing" textLength="209" x="1439.5" y="2190.583">Принимает решение о доступе</text><rect fill="#FFFFFF" height="47.9375" rx="12.5" ry="12.5" style="stroke:#000000;stroke-width:1.0;" width="168" x="1460" y="2385.3193"/><text fill="#000000" font-family="Verdana" font-size="12" lengthAdjust="spacing" textLength="148" x="1470" y="2406.458">Записывает успешное</text><text fill="#000000" font-family="Verdana" font-size="12" lengthAdjust="spacing" textLength="116" x="1470" y="2420.4268">событие доступа</text><line style="stroke:#000000;stroke-width:1.0;" x1="1423.5" x2="1423.5" y1="54.3545" y2="2655.6943"/><rect fill="#FFFFFF" height="47.9375" rx="12.5" ry="12.5" style="stroke:#000000;stroke-width:1.0;" width="218" x="1692.75" y="1483.0459"/><text fill="#000000" font-family="Verdana" font-size="12" lengthAdjust="spacing" textLength="198" x="1702.75" y="1504.1846">Получает данные сотрудника</text><text fill="#000000" font-family="Verdana" font-size="12" lengthAdjust="spacing" textLength="91" x="1702.75" y="1518.1533">из PostgreSQL</text><rect fill="#FFFFFF" height="33.9688" rx="12.5" ry="12.5" style="stroke:#000000;stroke-width:1.0;" width="224" x="1689.75" y="1550.9834"/><text fill="#000000" font-family="Verdana" font-size="12" lengthAdjust="spacing" textLength="204" x="1699.75" y="1572.1221">Проверяет статус сотрудника</text><polygon fill="#FFFFFF" points="1740.25,1604.9521,1863.25,1604.9521,1875.25,1616.9521,1863.25,1628.9521,1740.25,1628.9521,1728.25,1616.9521,1740.25,1604.9521" style="stroke:#000000;stroke-width:1.0;"/><text fill="#000000" font-family="Verdana" font-size="11" lengthAdjust="spacing" textLength="21" x="1805.75" y="1639.1626">нет</text><text fill="#000000" font-family="Verdana" font-size="11" lengthAdjust="spacing" textLength="123" x="1740.25" y="1620.7603">Сотрудник активен?</text><text fill="#000000" font-family="Verdana" font-size="11" lengthAdjust="spacing" textLength="15" x="1875.25" y="1614.3579">да</text><line style="stroke:#000000;stroke-width:1.0;" x1="1664.5" x2="1664.5" y1="54.3545" y2="2655.6943"/><rect fill="#FFFFFF" height="47.9375" rx="12.5" ry="12.5" style="stroke:#000000;stroke-width:1.0;" width="169" x="1996.5" y="2453.2568"/><text fill="#000000" font-family="Verdana" font-size="12" lengthAdjust="spacing" textLength="149" x="2006.5" y="2474.3955">Интегрирует событие</text><text fill="#000000" font-family="Verdana" font-size="12" lengthAdjust="spacing" textLength="86" x="2006.5" y="2488.3643">в общую СКД</text><line style="stroke:#000000;stroke-width:1.0;" x1="1942.5" x2="1942.5" y1="54.3545" y2="2655.6943"/><line style="stroke:#000000;stroke-width:1.0;" x1="2217.5" x2="2217.5" y1="54.3545" y2="2655.6943"/><line style="stroke:#000000;stroke-width:1.0;" x1="292" x2="292" y1="100.3076" y2="120.3076"/><polygon fill="#000000" points="288,110.3076,292,120.3076,296,110.3076,292,114.3076" style="stroke:#000000;stroke-width:1.0;"/><line style="stroke:#000000;stroke-width:1.0;" x1="292" x2="292" y1="154.2764" y2="174.2764"/><polygon fill="#000000" points="288,164.2764,292,174.2764,296,164.2764,292,168.2764" style="stroke:#000000;stroke-width:1.0;"/><line style="stroke:#000000;stroke-width:1.0;" x1="292" x2="292" y1="540.46" y2="570.7412"/><polygon fill="#000000" points="288,560.7412,292,570.7412,296,560.7412,292,564.7412" style="stroke:#000000;stroke-width:1.0;"/><line style="stroke:#000000;stroke-width:1.0;" x1="292" x2="292" y1="2555.1631" y2="2599.4287"/><polygon fill="#000000" points="288,2589.4287,292,2599.4287,296,2589.4287,292,2593.4287" style="stroke:#000000;stroke-width:1.0;"/><line style="stroke:#000000;stroke-width:1.0;" x1="879.5" x2="879.5" y1="316.1826" y2="336.1826"/><polygon fill="#000000" points="875.5,326.1826,879.5,336.1826,883.5,326.1826,879.5,330.1826" style="stroke:#000000;stroke-width:1.0;"/><line style="stroke:#000000;stroke-width:1.0;" x1="879.5" x2="879.5" y1="370.1514" y2="390.1514"/><polygon fill="#000000" points="875.5,380.1514,879.5,390.1514,883.5,380.1514,879.5,384.1514" style="stroke:#000000;stroke-width:1.0;"/><line style="stroke:#000000;stroke-width:1.0;" x1="947.5" x2="974" y1="456.1201" y2="456.1201"/><polygon fill="#000000" points="970,540.7412,974,550.7412,978,540.7412,974,544.7412" style="stroke:#000000;stroke-width:1.0;"/><line style="stroke:#000000;stroke-width:1.0;" x1="974" x2="974" y1="456.1201" y2="619.7412"/><line style="stroke:#000000;stroke-width:1.0;" x1="974" x2="292" y1="619.7412" y2="619.7412"/><line style="stroke:#000000;stroke-width:1.0;" x1="292" x2="292" y1="619.7412" y2="634.7412"/><polygon fill="#000000" points="288,624.7412,292,634.7412,296,624.7412,292,628.7412" style="stroke:#000000;stroke-width:1.0;"/><line style="stroke:#000000;stroke-width:1.0;" x1="879.5" x2="879.5" y1="424.1201" y2="444.1201"/><polygon fill="#000000" points="875.5,434.1201,879.5,444.1201,883.5,434.1201,879.5,438.1201" style="stroke:#000000;stroke-width:1.0;"/><line style="stroke:#000000;stroke-width:1.0;" x1="879.5" x2="879.5" y1="2257.3818" y2="2277.3818"/><polygon fill="#000000" points="875.5,2267.3818,879.5,2277.3818,883.5,2267.3818,879.5,2271.3818" style="stroke:#000000;stroke-width:1.0;"/><line style="stroke:#000000;stroke-width:1.0;" x1="879.5" x2="879.5" y1="2311.3506" y2="2331.3506"/><polygon fill="#000000" points="875.5,2321.3506,879.5,2331.3506,883.5,2321.3506,879.5,2325.3506" style="stroke:#000000;stroke-width:1.0;"/><line style="stroke:#000000;stroke-width:1.0;" x1="1094" x2="1094" y1="736.6475" y2="756.6475"/><polygon fill="#000000" points="1090,746.6475,1094,756.6475,1098,746.6475,1094,750.6475" style="stroke:#000000;stroke-width:1.0;"/><line style="stroke:#000000;stroke-width:1.0;" x1="1300.25" x2="1300.25" y1="844.585" y2="864.585"/><polygon fill="#000000" points="1296.25,854.585,1300.25,864.585,1304.25,854.585,1300.25,858.585" style="stroke:#000000;stroke-width:1.0;"/><line style="stroke:#000000;stroke-width:1.0;" x1="1300.25" x2="1300.25" y1="898.5537" y2="918.5537"/><polygon fill="#000000" points="1296.25,908.5537,1300.25,918.5537,1304.25,908.5537,1300.25,912.5537" style="stroke:#000000;stroke-width:1.0;"/><line style="stroke:#000000;stroke-width:1.0;" x1="1377.75" x2="1544" y1="998.4912" y2="998.4912"/><polygon fill="#000000" points="1540,1118.3311,1544,1128.3311,1548,1118.3311,1544,1122.3311" style="stroke:#000000;stroke-width:1.0;"/><line style="stroke:#000000;stroke-width:1.0;" x1="1544" x2="1544" y1="998.4912" y2="1234.7686"/><polygon fill="#000000" points="1540,1224.7686,1544,1234.7686,1548,1224.7686,1544,1228.7686" style="stroke:#000000;stroke-width:1.0;"/><line style="stroke:#000000;stroke-width:1.0;" x1="1300.25" x2="1300.25" y1="966.4912" y2="986.4912"/><polygon fill="#000000" points="1296.25,976.4912,1300.25,986.4912,1304.25,976.4912,1300.25,980.4912" style="stroke:#000000;stroke-width:1.0;"/><line style="stroke:#000000;stroke-width:1.0;" x1="1544" x2="1544" y1="1150.7686" y2="1170.7686"/><polygon fill="#000000" points="1540,1160.7686,1544,1170.7686,1548,1160.7686,1544,1164.7686" style="stroke:#000000;stroke-width:1.0;"/><line style="stroke:#000000;stroke-width:1.0;" x1="1544" x2="1544" y1="1399.0459" y2="1419.0459"/><polygon fill="#000000" points="1540,1409.0459,1544,1419.0459,1548,1409.0459,1544,1413.0459" style="stroke:#000000;stroke-width:1.0;"/><line style="stroke:#000000;stroke-width:1.0;" x1="1631.5" x2="1801.75" y1="1246.7686" y2="1246.7686"/><polygon fill="#000000" points="1797.75,1366.6084,1801.75,1376.6084,1805.75,1366.6084,1801.75,1370.6084" style="stroke:#000000;stroke-width:1.0;"/><line style="stroke:#000000;stroke-width:1.0;" x1="1801.75" x2="1801.75" y1="1246.7686" y2="1483.0459"/><polygon fill="#000000" points="1797.75,1473.0459,1801.75,1483.0459,1805.75,1473.0459,1801.75,1477.0459" style="stroke:#000000;stroke-width:1.0;"/><line style="stroke:#000000;stroke-width:1.0;" x1="1544" x2="1544" y1="1769.2295" y2="1789.2295"/><polygon fill="#000000" points="1540,1779.2295,1544,1789.2295,1548,1779.2295,1544,1783.2295" style="stroke:#000000;stroke-width:1.0;"/><line style="stroke:#000000;stroke-width:1.0;" x1="1544" x2="1544" y1="2085.4443" y2="2105.4443"/><polygon fill="#000000" points="1540,2095.4443,1544,2105.4443,1548,2095.4443,1544,2099.4443" style="stroke:#000000;stroke-width:1.0;"/><line style="stroke:#000000;stroke-width:1.0;" x1="1618" x2="1636.5" y1="1933.167" y2="1933.167"/><polygon fill="#000000" points="1632.5,2035.5068,1636.5,2045.5068,1640.5,2035.5068,1636.5,2039.5068" style="stroke:#000000;stroke-width:1.0;"/><line style="stroke:#000000;stroke-width:1.0;" x1="1636.5" x2="1636.5" y1="1933.167" y2="2149.4443"/><line style="stroke:#000000;stroke-width:1.0;" x1="1636.5" x2="1544" y1="2149.4443" y2="2149.4443"/><line style="stroke:#000000;stroke-width:1.0;" x1="1544" x2="1544" y1="2149.4443" y2="2169.4443"/><polygon fill="#000000" points="1540,2159.4443,1544,2169.4443,1548,2159.4443,1544,2163.4443" style="stroke:#000000;stroke-width:1.0;"/><line style="stroke:#000000;stroke-width:1.0;" x1="1544" x2="1544" y1="1901.167" y2="1921.167"/><polygon fill="#000000" points="1540,1911.167,1544,1921.167,1548,1911.167,1544,1915.167" style="stroke:#000000;stroke-width:1.0;"/><line style="stroke:#000000;stroke-width:1.0;" x1="1801.75" x2="1801.75" y1="1530.9834" y2="1550.9834"/><polygon fill="#000000" points="1797.75,1540.9834,1801.75,1550.9834,1805.75,1540.9834,1801.75,1544.9834" style="stroke:#000000;stroke-width:1.0;"/><line style="stroke:#000000;stroke-width:1.0;" x1="1875.25" x2="1904.25" y1="1616.9521" y2="1616.9521"/><polygon fill="#000000" points="1900.25,1728.042,1904.25,1738.042,1908.25,1728.042,1904.25,1732.042" style="stroke:#000000;stroke-width:1.0;"/><line style="stroke:#000000;stroke-width:1.0;" x1="1904.25" x2="1904.25" y1="1616.9521" y2="1838.2295"/><line style="stroke:#000000;stroke-width:1.0;" x1="1904.25" x2="1544" y1="1838.2295" y2="1838.2295"/><line style="stroke:#000000;stroke-width:1.0;" x1="1544" x2="1544" y1="1838.2295" y2="1853.2295"/><polygon fill="#000000" points="1540,1843.2295,1544,1853.2295,1548,1843.2295,1544,1847.2295" style="stroke:#000000;stroke-width:1.0;"/><line style="stroke:#000000;stroke-width:1.0;" x1="1801.75" x2="1801.75" y1="1584.9521" y2="1604.9521"/><polygon fill="#000000" points="1797.75,1594.9521,1801.75,1604.9521,1805.75,1594.9521,1801.75,1598.9521" style="stroke:#000000;stroke-width:1.0;"/><line style="stroke:#000000;stroke-width:1.0;" x1="292" x2="292" y1="208.2451" y2="213.2451"/><line style="stroke:#000000;stroke-width:1.0;" x1="292" x2="661.5" y1="213.2451" y2="213.2451"/><line style="stroke:#000000;stroke-width:1.0;" x1="661.5" x2="661.5" y1="213.2451" y2="228.2451"/><polygon fill="#000000" points="657.5,218.2451,661.5,228.2451,665.5,218.2451,661.5,222.2451" style="stroke:#000000;stroke-width:1.0;"/><line style="stroke:#000000;stroke-width:1.0;" x1="661.5" x2="661.5" y1="262.2139" y2="267.2139"/><line style="stroke:#000000;stroke-width:1.0;" x1="661.5" x2="879.5" y1="267.2139" y2="267.2139"/><line style="stroke:#000000;stroke-width:1.0;" x1="879.5" x2="879.5" y1="267.2139" y2="282.2139"/><polygon fill="#000000" points="875.5,272.2139,879.5,282.2139,883.5,272.2139,879.5,276.2139" style="stroke:#000000;stroke-width:1.0;"/><line style="stroke:#000000;stroke-width:1.0;" x1="879.5" x2="879.5" y1="468.1201" y2="480.3213"/><line style="stroke:#000000;stroke-width:1.0;" x1="879.5" x2="292" y1="480.3213" y2="480.3213"/><line style="stroke:#000000;stroke-width:1.0;" x1="292" x2="292" y1="480.3213" y2="492.5225"/><polygon fill="#000000" points="288,482.5225,292,492.5225,296,482.5225,292,486.5225" style="stroke:#000000;stroke-width:1.0;"/><line style="stroke:#000000;stroke-width:1.0;" x1="292" x2="292" y1="682.6787" y2="687.6787"/><line style="stroke:#000000;stroke-width:1.0;" x1="292" x2="1094" y1="687.6787" y2="687.6787"/><line style="stroke:#000000;stroke-width:1.0;" x1="1094" x2="1094" y1="687.6787" y2="702.6787"/><polygon fill="#000000" points="1090,692.6787,1094,702.6787,1098,692.6787,1094,696.6787" style="stroke:#000000;stroke-width:1.0;"/><line style="stroke:#000000;stroke-width:1.0;" x1="1094" x2="1094" y1="790.6162" y2="795.6162"/><line style="stroke:#000000;stroke-width:1.0;" x1="1094" x2="1300.25" y1="795.6162" y2="795.6162"/><line style="stroke:#000000;stroke-width:1.0;" x1="1300.25" x2="1300.25" y1="795.6162" y2="810.6162"/><polygon fill="#000000" points="1296.25,800.6162,1300.25,810.6162,1304.25,800.6162,1300.25,804.6162" style="stroke:#000000;stroke-width:1.0;"/><line style="stroke:#000000;stroke-width:1.0;" x1="292" x2="292" y1="1082.8311" y2="1087.8311"/><line style="stroke:#000000;stroke-width:1.0;" x1="292" x2="1544" y1="1087.8311" y2="1087.8311"/><line style="stroke:#000000;stroke-width:1.0;" x1="1544" x2="1544" y1="1087.8311" y2="1102.8311"/><polygon fill="#000000" points="1540,1092.8311,1544,1102.8311,1548,1092.8311,1544,1096.8311" style="stroke:#000000;stroke-width:1.0;"/><line style="stroke:#000000;stroke-width:1.0;" x1="1300.25" x2="1300.25" y1="1010.4912" y2="1022.6924"/><line style="stroke:#000000;stroke-width:1.0;" x1="1300.25" x2="292" y1="1022.6924" y2="1022.6924"/><line style="stroke:#000000;stroke-width:1.0;" x1="292" x2="292" y1="1022.6924" y2="1034.8936"/><polygon fill="#000000" points="288,1024.8936,292,1034.8936,296,1024.8936,292,1028.8936" style="stroke:#000000;stroke-width:1.0;"/><line style="stroke:#000000;stroke-width:1.0;" x1="292" x2="292" y1="1331.1084" y2="1336.1084"/><line style="stroke:#000000;stroke-width:1.0;" x1="292" x2="1544" y1="1336.1084" y2="1336.1084"/><line style="stroke:#000000;stroke-width:1.0;" x1="1544" x2="1544" y1="1336.1084" y2="1351.1084"/><polygon fill="#000000" points="1540,1341.1084,1544,1351.1084,1548,1341.1084,1544,1345.1084" style="stroke:#000000;stroke-width:1.0;"/><line style="stroke:#000000;stroke-width:1.0;" x1="1544" x2="1544" y1="1258.7686" y2="1270.9697"/><line style="stroke:#000000;stroke-width:1.0;" x1="1544" x2="292" y1="1270.9697" y2="1270.9697"/><line style="stroke:#000000;stroke-width:1.0;" x1="292" x2="292" y1="1270.9697" y2="1283.1709"/><polygon fill="#000000" points="288,1273.1709,292,1283.1709,296,1273.1709,292,1277.1709" style="stroke:#000000;stroke-width:1.0;"/><line style="stroke:#000000;stroke-width:1.0;" x1="292" x2="292" y1="1701.292" y2="1706.292"/><line style="stroke:#000000;stroke-width:1.0;" x1="292" x2="1544" y1="1706.292" y2="1706.292"/><line style="stroke:#000000;stroke-width:1.0;" x1="1544" x2="1544" y1="1706.292" y2="1721.292"/><polygon fill="#000000" points="1540,1711.292,1544,1721.292,1548,1711.292,1544,1715.292" style="stroke:#000000;stroke-width:1.0;"/><line style="stroke:#000000;stroke-width:1.0;" x1="1801.75" x2="1801.75" y1="1628.9521" y2="1641.1533"/><line style="stroke:#000000;stroke-width:1.0;" x1="1801.75" x2="292" y1="1641.1533" y2="1641.1533"/><line style="stroke:#000000;stroke-width:1.0;" x1="292" x2="292" y1="1641.1533" y2="1653.3545"/><polygon fill="#000000" points="288,1643.3545,292,1653.3545,296,1643.3545,292,1647.3545" style="stroke:#000000;stroke-width:1.0;"/><line style="stroke:#000000;stroke-width:1.0;" x1="292" x2="292" y1="2017.5068" y2="2022.5068"/><line style="stroke:#000000;stroke-width:1.0;" x1="292" x2="1544" y1="2022.5068" y2="2022.5068"/><line style="stroke:#000000;stroke-width:1.0;" x1="1544" x2="1544" y1="2022.5068" y2="2037.5068"/><polygon fill="#000000" points="1540,2027.5068,1544,2037.5068,1548,2027.5068,1544,2031.5068" style="stroke:#000000;stroke-width:1.0;"/><line style="stroke:#000000;stroke-width:1.0;" x1="1544" x2="1544" y1="1945.167" y2="1957.3682"/><line style="stroke:#000000;stroke-width:1.0;" x1="1544" x2="292" y1="1957.3682" y2="1957.3682"/><line style="stroke:#000000;stroke-width:1.0;" x1="292" x2="292" y1="1957.3682" y2="1969.5693"/><polygon fill="#000000" points="288,1959.5693,292,1969.5693,296,1959.5693,292,1963.5693" style="stroke:#000000;stroke-width:1.0;"/><line style="stroke:#000000;stroke-width:1.0;" x1="1544" x2="1544" y1="2203.4131" y2="2208.4131"/><line style="stroke:#000000;stroke-width:1.0;" x1="1544" x2="879.5" y1="2208.4131" y2="2208.4131"/><line style="stroke:#000000;stroke-width:1.0;" x1="879.5" x2="879.5" y1="2208.4131" y2="2223.4131"/><polygon fill="#000000" points="875.5,2213.4131,879.5,2223.4131,883.5,2213.4131,879.5,2217.4131" style="stroke:#000000;stroke-width:1.0;"/><line style="stroke:#000000;stroke-width:1.0;" x1="879.5" x2="879.5" y1="2365.3193" y2="2370.3193"/><line style="stroke:#000000;stroke-width:1.0;" x1="879.5" x2="1544" y1="2370.3193" y2="2370.3193"/><line style="stroke:#000000;stroke-width:1.0;" x1="1544" x2="1544" y1="2370.3193" y2="2385.3193"/><polygon fill="#000000" points="1540,2375.3193,1544,2385.3193,1548,2375.3193,1544,2379.3193" style="stroke:#000000;stroke-width:1.0;"/><line style="stroke:#000000;stroke-width:1.0;" x1="1544" x2="1544" y1="2433.2568" y2="2438.2568"/><line style="stroke:#000000;stroke-width:1.0;" x1="1544" x2="2081" y1="2438.2568" y2="2438.2568"/><line style="stroke:#000000;stroke-width:1.0;" x1="2081" x2="2081" y1="2438.2568" y2="2453.2568"/><polygon fill="#000000" points="2077,2443.2568,2081,2453.2568,2085,2443.2568,2081,2447.2568" style="stroke:#000000;stroke-width:1.0;"/><line style="stroke:#000000;stroke-width:1.0;" x1="2081" x2="2081" y1="2501.1943" y2="2506.1943"/><line style="stroke:#000000;stroke-width:1.0;" x1="2081" x2="292" y1="2506.1943" y2="2506.1943"/><line style="stroke:#000000;stroke-width:1.0;" x1="292" x2="292" y1="2506.1943" y2="2521.1943"/><polygon fill="#000000" points="288,2511.1943,292,2521.1943,296,2511.1943,292,2515.1943" style="stroke:#000000;stroke-width:1.0;"/><text fill="#000000" font-family="Verdana" font-size="18" lengthAdjust="spacing" textLength="107" x="231.5" y="71.0625">Сотрудник</text><text fill="#000000" font-family="Verdana" font-size="18" lengthAdjust="spacing" textLength="126" x="597.5" y="71.0625">Видеокамера</text><text fill="#000000" font-family="Verdana" font-size="18" lengthAdjust="spacing" textLength="229" x="766" y="71.0625">Локальный сервер Edge</text><text fill="#000000" font-family="Verdana" font-size="18" lengthAdjust="spacing" textLength="89" x="1048.5" y="71.0625">API-шлюз</text><text fill="#000000" font-family="Verdana" font-size="18" lengthAdjust="spacing" textLength="228" x="1190.75" y="71.0625">Модуль обработки лиц</text><text fill="#000000" font-family="Verdana" font-size="18" lengthAdjust="spacing" textLength="212" x="1438" y="71.0625">Система логирования</text><text fill="#000000" font-family="Verdana" font-size="18" lengthAdjust="spacing" textLength="268" x="1669.5" y="71.0625">Модуль принятия решений</text><text fill="#000000" font-family="Verdana" font-size="18" lengthAdjust="spacing" textLength="265" x="1947.5" y="71.0625">Система контроля доступа</text><!--MD5=[2a19ca17932e3ad344be018ebe6f2b5c]
@startuml
!theme plain
title Диаграмма активности - Автоматизированный процесс распознавания

skinparam backgroundColor #FFFFFF
skinparam activityDiamondBorderColor black
skinparam activityBorderColor black

|Сотрудник|
start
:Подходит к КПП;
:Смотрит в камеру;

|Видеокамера|
:Захватывает видеопоток;

|Локальный сервер Edge|
:Обнаруживает лицо;
:Выделяет ключевые области;
:Сжимает признаки;

if (Лицо обнаружено?) then (нет)
    |Сотрудник|
    :Получает сообщение:
    "Лицо не обнаружено";
    stop
else (да)
endif

:Отправляет данные на
центральный сервер;

|API-шлюз|
:Получает запрос;
:Распределяет нагрузку;

|Модуль обработки лиц|
:Нормализует изображение;
:Генерирует эмбеддинг;
:Ищет совпадения в
векторном хранилище;

if (Найдено совпадение?) then (нет)
    |Сотрудник|
    :Получает сообщение:
    "Сотрудник не найден";
    |Система логирования|
    :Записывает событие
    "Неизвестное лицо";
    stop
else (да)
endif

if (Уровень схожести >98%?) then (нет)
    |Сотрудник|
    :Получает сообщение:
    "Низкая точность";
    |Система логирования|
    :Записывает событие
    "Низкая достоверность";
    stop
else (да)
endif

|Модуль принятия решений|
:Получает данные сотрудника
из PostgreSQL;

:Проверяет статус сотрудника;

if (Сотрудник активен?) then (нет)
    |Сотрудник|
    :Получает сообщение:
    "Доступ заблокирован";
    |Система логирования|
    :Записывает событие
    "Неактивный сотрудник";
    stop
else (да)
endif

:Проверяет права доступа
к данному КПП;

if (Есть права доступа?) then (нет)
    |Сотрудник|
    :Получает сообщение:
    "Нет прав доступа";
    |Система логирования|
    :Записывает событие
    "Нет прав";
    stop
else (да)
endif

:Принимает решение о доступе;

|Локальный сервер Edge|
:Получает разрешение;
:Отображает приветствие;
:Открывает турникет;

|Система логирования|
:Записывает успешное
событие доступа;

|Система контроля доступа|
:Интегрирует событие
в общую СКД;

|Сотрудник|
:Проходит через турникет;

stop

note right
Целевые показатели:
- Время обработки < 1 сек
- Точность > 98%
- Поддержка 300 запросов/сек
end note

note left
Мониторинг:
- Prometheus собирает метрики
- Grafana визуализирует данные
- Контроль производительности
end note
@enduml

@startuml







<style>
  root {
    BackgroundColor white
    FontColor black
    FontName Verdana
    HyperLinkColor blue
    LineColor black
    LineThickness 1
    Margin 5
  }
  caption {
    LineThickness 0
  }
  footer {
    LineThickness 0
  }
  header {
    LineThickness 0
  }
  node {
    MaximumWidth 300
  }
  title {
    FontSize 22
    LineThickness 0
  }
</style>

skinparam ArrowLollipopColor black
skinparam BackgroundColor white
skinparam DefaultFontName Verdana
skinparam DefaultMonospacedFontName Courier
skinparam LifelineStrategy nosolid
skinparam ParticipantPadding 10
skinparam SequenceLifeLineBorderColor black
skinparam Shadowing false
skinparam UseBetaStyle true

skinparam Activity {
  BackgroundColor white
  BarColor black
  BorderColor black
  FontColor black
  FontName Verdana
}
skinparam Boundary {
  FontColor black
}
skinparam Box {
  Padding 5
}
skinparam CircledCharacter {
  FontColor black
  FontName Courier
  Radius 9
}
skinparam Class {
  BackgroundColor white
  BorderColor black
  FontColor black
  FontName Verdana
}
skinparam ClassAttribute {
  FontColor black
  FontName Verdana
}
skinparam ClassStereotype {
  FontColor black
  FontName Verdana
}
skinparam Footer {
  FontColor black
  FontName Verdana
}
skinparam Header {
  FontColor black
  FontName Verdana
}
skinparam Hyperlink {
  Color blue
}
skinparam IconPackage {
  Color black
  BackgroundColor white
}
skinparam IconPrivate {
  Color black
  BackgroundColor white
}
skinparam IconProtected {
  Color black
  BackgroundColor white
}
skinparam IconPublic {
  Color black
  BackgroundColor white
}
skinparam Note {
  FontColor black
  FontName Verdana
}
skinparam Object {
  BorderColor black
}
skinparam Package {
  BorderColor black
  FontColor black
  FontName Verdana
}
skinparam State {
  BackgroundColor white
  BorderColor black
}
skinparam StereotypeA {
  BackgroundColor white
  BorderColor black
}
skinparam StereotypeC {
  BackgroundColor white
  BorderColor black
}
skinparam StereotypeE {
  BackgroundColor white
  BorderColor black
}
skinparam StereotypeI {
  BackgroundColor white
  BorderColor black
}
skinparam StereotypeN {
  BackgroundColor white
  BorderColor black
}
skinparam UseCaseStereoType {
  FontColor black
  FontName Verdana
}
title Диаграмма активности - Автоматизированный процесс распознавания

skinparam backgroundColor #FFFFFF
skinparam activityDiamondBorderColor black
skinparam activityBorderColor black

|Сотрудник|
start
:Подходит к КПП;
:Смотрит в камеру;

|Видеокамера|
:Захватывает видеопоток;

|Локальный сервер Edge|
:Обнаруживает лицо;
:Выделяет ключевые области;
:Сжимает признаки;

if (Лицо обнаружено?) then (нет)
    |Сотрудник|
    :Получает сообщение:
    "Лицо не обнаружено";
    stop
else (да)
endif

:Отправляет данные на
центральный сервер;

|API-шлюз|
:Получает запрос;
:Распределяет нагрузку;

|Модуль обработки лиц|
:Нормализует изображение;
:Генерирует эмбеддинг;
:Ищет совпадения в
векторном хранилище;

if (Найдено совпадение?) then (нет)
    |Сотрудник|
    :Получает сообщение:
    "Сотрудник не найден";
    |Система логирования|
    :Записывает событие
    "Неизвестное лицо";
    stop
else (да)
endif

if (Уровень схожести >98%?) then (нет)
    |Сотрудник|
    :Получает сообщение:
    "Низкая точность";
    |Система логирования|
    :Записывает событие
    "Низкая достоверность";
    stop
else (да)
endif

|Модуль принятия решений|
:Получает данные сотрудника
из PostgreSQL;

:Проверяет статус сотрудника;

if (Сотрудник активен?) then (нет)
    |Сотрудник|
    :Получает сообщение:
    "Доступ заблокирован";
    |Система логирования|
    :Записывает событие
    "Неактивный сотрудник";
    stop
else (да)
endif

:Проверяет права доступа
к данному КПП;

if (Есть права доступа?) then (нет)
    |Сотрудник|
    :Получает сообщение:
    "Нет прав доступа";
    |Система логирования|
    :Записывает событие
    "Нет прав";
    stop
else (да)
endif

:Принимает решение о доступе;

|Локальный сервер Edge|
:Получает разрешение;
:Отображает приветствие;
:Открывает турникет;

|Система логирования|
:Записывает успешное
событие доступа;

|Система контроля доступа|
:Интегрирует событие
в общую СКД;

|Сотрудник|
:Проходит через турникет;

stop

note right
Целевые показатели:
- Время обработки < 1 сек
- Точность > 98%
- Поддержка 300 запросов/сек
end note

note left
Мониторинг:
- Prometheus собирает метрики
- Grafana визуализирует данные
- Контроль производительности
end note
@enduml

PlantUML version 1.2022.7(Mon Aug 22 17:01:30 UTC 2022)
(GPL source distribution)
Java Runtime: OpenJDK Runtime Environment
JVM: OpenJDK 64-Bit Server VM
Default Encoding: UTF-8
Language: en
Country: null
--></g></svg>